<svg xmlns="http://www.w3.org/2000/svg" xmlns:xlink="http://www.w3.org/1999/xlink" width="2000" zoomAndPan="magnify" viewBox="0 0 1500 1499.999933" height="2000" preserveAspectRatio="xMidYMid meet" version="1.0"><defs><g/><clipPath id="e47822abe2"><path d="M 241 1066 L 1434 1066 L 1434 1322.71875 L 241 1322.71875 Z M 241 1066 " clip-rule="nonzero"/></clipPath><clipPath id="42b5030163"><rect x="0" width="1193" y="0" height="257"/></clipPath><clipPath id="a4996d5f62"><path d="M 691.003906 111.585938 L 1462.5625 111.585938 L 1462.5625 883.148438 L 691.003906 883.148438 Z M 691.003906 111.585938 " clip-rule="nonzero"/></clipPath><clipPath id="8ed139b7fa"><path d="M 1076.78125 111.585938 C 863.722656 111.585938 691.003906 284.308594 691.003906 497.367188 C 691.003906 710.429688 863.722656 883.148438 1076.78125 883.148438 C 1289.84375 883.148438 1462.5625 710.429688 1462.5625 497.367188 C 1462.5625 284.308594 1289.84375 111.585938 1076.78125 111.585938 Z M 1076.78125 111.585938 " clip-rule="nonzero"/></clipPath><clipPath id="8821d7f12d"><path d="M 0.00390625 0.585938 L 771.5625 0.585938 L 771.5625 772.148438 L 0.00390625 772.148438 Z M 0.00390625 0.585938 " clip-rule="nonzero"/></clipPath><clipPath id="3c30fb219f"><path d="M 385.78125 0.585938 C 172.722656 0.585938 0.00390625 173.308594 0.00390625 386.367188 C 0.00390625 599.429688 172.722656 772.148438 385.78125 772.148438 C 598.84375 772.148438 771.5625 599.429688 771.5625 386.367188 C 771.5625 173.308594 598.84375 0.585938 385.78125 0.585938 Z M 385.78125 0.585938 " clip-rule="nonzero"/></clipPath><clipPath id="dc22a4cea2"><rect x="0" width="772" y="0" height="773"/></clipPath><clipPath id="2c1b00c461"><path d="M 143 84 L 775 84 L 775 942 L 143 942 Z M 143 84 " clip-rule="nonzero"/></clipPath><clipPath id="8f63800d34"><path d="M 409.101562 84.28125 L 774.996094 902.742188 L 365.765625 1085.6875 L -0.128906 267.226562 Z M 409.101562 84.28125 " clip-rule="nonzero"/></clipPath><clipPath id="933e598c9b"><path d="M 409.101562 84.28125 L 774.996094 902.742188 L 365.765625 1085.6875 L -0.128906 267.226562 Z M 409.101562 84.28125 " clip-rule="nonzero"/></clipPath><clipPath id="eaa6ccc7aa"><path d="M 525.183594 0.371094 L 774.902344 0.371094 L 774.902344 250.09375 L 525.183594 250.09375 Z M 525.183594 0.371094 " clip-rule="nonzero"/></clipPath><clipPath id="d1a3760208"><path d="M 650.042969 0.371094 C 581.082031 0.371094 525.183594 56.273438 525.183594 125.234375 C 525.183594 194.191406 581.082031 250.09375 650.042969 250.09375 C 719 250.09375 774.902344 194.191406 774.902344 125.234375 C 774.902344 56.273438 719 0.371094 650.042969 0.371094 Z M 650.042969 0.371094 " clip-rule="nonzero"/></clipPath><clipPath id="6f3e270b9e"><path d="M 0.183594 0.371094 L 249.902344 0.371094 L 249.902344 250.09375 L 0.183594 250.09375 Z M 0.183594 0.371094 " clip-rule="nonzero"/></clipPath><clipPath id="5b8d46415c"><path d="M 125.042969 0.371094 C 56.082031 0.371094 0.183594 56.273438 0.183594 125.234375 C 0.183594 194.191406 56.082031 250.09375 125.042969 250.09375 C 194 250.09375 249.902344 194.191406 249.902344 125.234375 C 249.902344 56.273438 194 0.371094 125.042969 0.371094 Z M 125.042969 0.371094 " clip-rule="nonzero"/></clipPath><clipPath id="810174c12a"><rect x="0" width="250" y="0" height="251"/></clipPath><clipPath id="24458a87ed"><rect x="0" width="1463" y="0" height="1323"/></clipPath></defs><g transform="matrix(1, 0, 0, 1, 0, 82)"><g clip-path="url(#24458a87ed)"><g clip-path="url(#e47822abe2)"><g transform="matrix(1, 0, 0, 1, 241, 1066)"><g clip-path="url(#42b5030163)"><g fill="#323232" fill-opacity="1"><g transform="translate(3.113156, 191.904229)"><g><path d="M 91.265625 -20.90625 L 45.8125 -20.90625 L 38.90625 0 L 1.453125 0 L 48.171875 -128.171875 L 89.265625 -128.171875 L 135.796875 0 L 98.171875 0 Z M 82.359375 -48.171875 L 68.53125 -89.625 L 54.90625 -48.171875 Z M 82.359375 -48.171875 "/></g></g></g><g fill="#323232" fill-opacity="1"><g transform="translate(267.636991, 191.904229)"><g><path d="M 45.8125 -134.53125 L 45.8125 0 L 10.1875 0 L 10.1875 -134.53125 Z M 45.8125 -134.53125 "/></g></g></g><g fill="#323232" fill-opacity="1"><g transform="translate(450.894994, 191.904229)"><g><path d="M 4.359375 -51.078125 C 4.359375 -61.628906 6.265625 -70.84375 10.078125 -78.71875 C 13.898438 -86.59375 19.144531 -92.648438 25.8125 -96.890625 C 32.476562 -101.140625 39.875 -103.265625 48 -103.265625 C 54.539062 -103.265625 60.382812 -101.898438 65.53125 -99.171875 C 70.6875 -96.441406 74.71875 -92.710938 77.625 -87.984375 L 77.625 -134.53125 L 113.4375 -134.53125 L 113.4375 0 L 77.625 0 L 77.625 -14.1875 C 74.84375 -9.457031 70.90625 -5.695312 65.8125 -2.90625 C 60.71875 -0.125 54.71875 1.265625 47.8125 1.265625 C 39.6875 1.265625 32.320312 -0.851562 25.71875 -5.09375 C 19.113281 -9.332031 13.898438 -15.421875 10.078125 -23.359375 C 6.265625 -31.296875 4.359375 -40.535156 4.359375 -51.078125 Z M 77.8125 -51.078125 C 77.8125 -57.628906 76.019531 -62.78125 72.4375 -66.53125 C 68.863281 -70.289062 64.472656 -72.171875 59.265625 -72.171875 C 53.929688 -72.171875 49.503906 -70.320312 45.984375 -66.625 C 42.472656 -62.925781 40.71875 -57.742188 40.71875 -51.078125 C 40.71875 -44.535156 42.472656 -39.351562 45.984375 -35.53125 C 49.503906 -31.71875 53.929688 -29.8125 59.265625 -29.8125 C 64.472656 -29.8125 68.863281 -31.691406 72.4375 -35.453125 C 76.019531 -39.210938 77.8125 -44.421875 77.8125 -51.078125 Z M 77.8125 -51.078125 "/></g></g></g><g fill="#323232" fill-opacity="1"><g transform="translate(701.783604, 191.904229)"><g><path d="M 107.625 -52.171875 C 107.625 -49.390625 107.441406 -46.601562 107.078125 -43.8125 L 39.625 -43.8125 C 39.988281 -38.238281 41.535156 -34.085938 44.265625 -31.359375 C 46.992188 -28.628906 50.476562 -27.265625 54.71875 -27.265625 C 60.65625 -27.265625 64.898438 -29.929688 67.453125 -35.265625 L 105.4375 -35.265625 C 103.863281 -28.234375 100.800781 -21.960938 96.25 -16.453125 C 91.707031 -10.941406 85.984375 -6.609375 79.078125 -3.453125 C 72.171875 -0.304688 64.535156 1.265625 56.171875 1.265625 C 46.117188 1.265625 37.179688 -0.851562 29.359375 -5.09375 C 21.546875 -9.332031 15.425781 -15.390625 11 -23.265625 C 6.570312 -31.148438 4.359375 -40.421875 4.359375 -51.078125 C 4.359375 -61.742188 6.539062 -70.984375 10.90625 -78.796875 C 15.269531 -86.617188 21.359375 -92.648438 29.171875 -96.890625 C 36.992188 -101.140625 45.992188 -103.265625 56.171875 -103.265625 C 66.234375 -103.265625 75.140625 -101.203125 82.890625 -97.078125 C 90.648438 -92.953125 96.710938 -87.039062 101.078125 -79.34375 C 105.441406 -71.65625 107.625 -62.597656 107.625 -52.171875 Z M 71.265625 -61.078125 C 71.265625 -65.441406 69.804688 -68.863281 66.890625 -71.34375 C 63.984375 -73.832031 60.351562 -75.078125 56 -75.078125 C 51.632812 -75.078125 48.054688 -73.894531 45.265625 -71.53125 C 42.484375 -69.164062 40.664062 -65.679688 39.8125 -61.078125 Z M 71.265625 -61.078125 "/></g></g></g><g fill="#323232" fill-opacity="1"><g transform="translate(941.036803, 191.904229)"><g><path d="M 4.359375 -51.078125 C 4.359375 -61.628906 6.265625 -70.84375 10.078125 -78.71875 C 13.898438 -86.59375 19.113281 -92.648438 25.71875 -96.890625 C 32.320312 -101.140625 39.6875 -103.265625 47.8125 -103.265625 C 54.84375 -103.265625 60.898438 -101.867188 65.984375 -99.078125 C 71.078125 -96.285156 75.019531 -92.53125 77.8125 -87.8125 L 77.8125 -101.984375 L 113.4375 -101.984375 L 113.4375 0 L 77.8125 0 L 77.8125 -14.1875 C 75.019531 -9.457031 71.046875 -5.695312 65.890625 -2.90625 C 60.742188 -0.125 54.71875 1.265625 47.8125 1.265625 C 39.6875 1.265625 32.320312 -0.851562 25.71875 -5.09375 C 19.113281 -9.332031 13.898438 -15.421875 10.078125 -23.359375 C 6.265625 -31.296875 4.359375 -40.535156 4.359375 -51.078125 Z M 77.8125 -51.078125 C 77.8125 -57.628906 76.019531 -62.78125 72.4375 -66.53125 C 68.863281 -70.289062 64.472656 -72.171875 59.265625 -72.171875 C 53.929688 -72.171875 49.503906 -70.320312 45.984375 -66.625 C 42.472656 -62.925781 40.71875 -57.742188 40.71875 -51.078125 C 40.71875 -44.535156 42.472656 -39.351562 45.984375 -35.53125 C 49.503906 -31.71875 53.929688 -29.8125 59.265625 -29.8125 C 64.472656 -29.8125 68.863281 -31.691406 72.4375 -35.453125 C 76.019531 -39.210938 77.8125 -44.421875 77.8125 -51.078125 Z M 77.8125 -51.078125 "/></g></g></g></g></g></g><g clip-path="url(#a4996d5f62)"><g clip-path="url(#8ed139b7fa)"><g transform="matrix(1, 0, 0, 1, 691, 111)"><g clip-path="url(#dc22a4cea2)"><g clip-path="url(#8821d7f12d)"><g clip-path="url(#3c30fb219f)"><path fill="#fcc0c5" d="M 0.00390625 0.585938 L 771.5625 0.585938 L 771.5625 772.148438 L 0.00390625 772.148438 Z M 0.00390625 0.585938 " fill-opacity="1" fill-rule="nonzero"/></g></g></g></g></g></g><g clip-path="url(#2c1b00c461)"><g clip-path="url(#8f63800d34)"><g clip-path="url(#933e598c9b)"><path fill="#0292b7" d="M 774.726562 902.140625 C 548.75 1003.160156 283.753906 901.898438 182.734375 675.925781 C 81.710938 449.953125 183.28125 185.648438 409.253906 84.625 Z M 774.726562 902.140625 " fill-opacity="1" fill-rule="nonzero"/></g></g></g><g clip-path="url(#eaa6ccc7aa)"><g clip-path="url(#d1a3760208)"><g transform="matrix(1, 0, 0, 1, 525, 0.000000000000113687)"><g clip-path="url(#810174c12a)"><g clip-path="url(#6f3e270b9e)"><g clip-path="url(#5b8d46415c)"><path fill="#ffd483" d="M 0.183594 0.371094 L 249.902344 0.371094 L 249.902344 250.09375 L 0.183594 250.09375 Z M 0.183594 0.371094 " fill-opacity="1" fill-rule="nonzero"/></g></g></g></g></g></g></g></g></svg>